<?xml version="1.0" standalone="no"?>
<!DOCTYPE svg PUBLIC "-//W3C//DTD SVG 20010904//EN"
 "http://www.w3.org/TR/2001/REC-SVG-20010904/DTD/svg10.dtd">
<svg version="1.0" xmlns="http://www.w3.org/2000/svg"
 width="1024.000000pt" height="1024.000000pt" viewBox="0 0 1024.000000 1024.000000"
 preserveAspectRatio="xMidYMid meet">

<g transform="translate(0.000000,1024.000000) scale(0.100000,-0.100000)"
fill="#000000" stroke="none">
<path d="M2320 8921 c-48 -25 -78 -72 -85 -134 -3 -29 -5 -1706 -3 -3727 3
-3654 3 -3675 23 -3709 11 -19 33 -43 48 -55 l28 -21 2788 -3 2788 -2 33 22
c19 13 43 39 54 58 l21 35 3 3119 c1 2222 -1 3130 -9 3160 -9 36 -86 116 -612
643 -331 332 -616 610 -633 618 -28 13 -291 15 -2221 15 -2111 0 -2190 -1
-2223 -19z m4212 -830 c3 -519 3 -530 24 -558 11 -15 36 -38 54 -50 l33 -23
523 0 524 0 0 -2935 0 -2935 -2565 0 -2565 0 0 3515 0 3515 1985 0 1984 0 3
-529z m628 -6 l305 -305 -308 0 -307 0 0 305 c0 168 1 305 3 305 1 0 139 -137
307 -305z"/>
<path d="M3089 6027 c-60 -32 -94 -97 -84 -162 9 -63 59 -119 120 -134 61 -15
3943 -16 4000 0 145 39 166 233 33 298 l-44 21 -1991 0 -1990 0 -44 -23z"/>
<path d="M3090 5042 c-103 -51 -115 -199 -22 -270 l35 -27 2021 0 2021 0 34
24 c73 52 90 165 33 232 -52 63 94 59 -2089 59 -1882 0 -2000 -1 -2033 -18z"/>
<path d="M3116 4070 c-39 -12 -93 -66 -107 -107 -25 -77 30 -181 109 -203 51
-14 3963 -14 4014 0 46 13 105 77 114 125 14 78 -39 164 -114 185 -46 12
-3973 12 -4016 0z"/>
<path d="M3094 3076 c-38 -17 -71 -57 -86 -107 -22 -74 28 -168 100 -189 26
-8 648 -10 2039 -8 l2002 3 28 21 c33 24 73 97 73 134 0 37 -40 110 -73 134
l-28 21 -2012 2 c-1669 2 -2017 0 -2043 -11z"/>
</g>
</svg>
